<svg xmlns="http://www.w3.org/2000/svg" version="1.1" xmlns:xlink="http://www.w3.org/1999/xlink" xmlns:svgjs="http://svgjs.dev/svgjs" width="1440" height="560" preserveAspectRatio="none" viewBox="0 0 1440 560">
    <g mask="url(&quot;#SvgjsMask1005&quot;)" fill="none">
        <rect width="1440" height="560" x="0" y="0" fill="#0e2a47"></rect>
        <path d="M0,507.641C95.729,497.839,188.644,471.434,267.857,416.794C345.391,363.312,399.499,285.868,442.786,202.214C487.898,115.032,522.796,23.053,522.391,-75.108C521.945,-183.048,521.647,-310.551,440.376,-381.588C358.698,-452.98,228.704,-393.876,124.24,-423.122C21.79,-451.804,-55.293,-555.913,-161.523,-550.096C-273.911,-543.942,-389.381,-485.17,-451.901,-391.575C-513.064,-300.012,-477.759,-179.395,-482.626,-69.391C-486.959,28.54,-509.194,125.479,-478.905,218.709C-446.336,318.957,-395.845,421.061,-305.593,475.512C-216.079,529.517,-103.999,518.29,0,507.641" fill="#0b2239"></path>
        <path d="M1440 1201.489C1565.815 1211.167 1691.314 1183.629 1802.829 1124.5729999999999 1920.9270000000001 1062.03 2033.411 977.903 2090.4210000000003 857.037 2147.727 735.543 2153.831 591.529 2114.897 462.964 2078.5209999999997 342.846 1976.501 260.088 1883.966 175.301 1800.9270000000001 99.21499999999997 1712.748 30.738000000000056 1605.532-3.75 1496.351-38.870000000000005 1378.326-57.048 1268.955-22.527000000000044 1160.59 11.677000000000021 1091.4470000000001 108.69200000000001 1007.307 185.06900000000002 910.578 272.874 772.162 332.93100000000004 738.354 459.119 704.029 587.237 763.523 724.152 832.529 837.423 896.956 943.178 1005.135 1007.725 1111.354 1071.384 1214.504 1133.203 1320.098 1192.266 1440 1201.489" fill="#113255"></path>
    </g>
    <defs>
        <mask id="SvgjsMask1005">
            <rect width="1440" height="560" fill="#ffffff"></rect>
        </mask>
    </defs>
</svg>